<?xml version="1.0" standalone="no"?><!DOCTYPE svg PUBLIC "-//W3C//DTD SVG 1.1//EN" "http://www.w3.org/Graphics/SVG/1.1/DTD/svg11.dtd"><svg t="1746800981204" class="icon" viewBox="0 0 1024 1024" version="1.1" xmlns="http://www.w3.org/2000/svg" p-id="1615" xmlns:xlink="http://www.w3.org/1999/xlink" width="200" height="200"><path d="M466.24 243.392c41.088 41.152 23.616 118.144-22.848 172.416 0 0 83.2-28.992 102.4-108.48 19.264-79.68-19.84-107.776-60.288-153.984C444.992 106.88 448.64 22.784 488.192 0c0 0-84.864 7.04-100.736 89.344-15.744 82.24 37.76 112.896 78.72 154.048zM607.232 367.744s93.696-47.232 81.472-119.04c-12.224-71.68-102.4-107.648-83.2-157.504 19.2-49.92 24.448-59.584 24.448-59.584s-136.576 83.2-50.688 161.024c85.76 77.888 77.696 106.88 27.968 175.104zM305.984 411.52s93.632-47.296 81.344-119.04c-12.16-71.872-102.4-107.712-83.2-157.568 19.52-49.92 24.704-59.52 24.704-59.52s-136.512 83.2-50.816 160.96c85.76 77.952 77.952 106.88 27.968 175.104zM83.968 1024h771.584c37.888 0 68.608-32.448 68.608-72.512H15.36C15.36 991.552 46.08 1024 83.968 1024zM1007.232 596.864c-14.912-106.88-151.424-112-151.424-112 0-34.176-45.44-54.208-45.44-54.208H157.312c-41.984 0-48.064 58.56-48.064 58.56 8.768 329.088 207.36 437.696 207.36 437.696h342.272c48.96-35.84 116.48-140.16 116.48-140.16 10.56 3.584 83.2-0.896 112-7.04 28.8-6.08 134.656-76.16 119.872-182.848zM344.64 870.016c-166.208-120.704-149.632-375.552-149.632-375.552h91.968c-50.816 144.448 49.792 326.528 63.808 351.936 14.08 25.408-6.144 23.616-6.144 23.616z m534.72-149.76c-42.88 25.536-74.496 8.832-74.496 8.832 44.672-62.144 48.064-182.08 48.064-182.08 7.872 2.56 14.08-29.696 70.08 27.136 56.128 56.832-0.64 120.768-43.648 146.112z" fill="#dbdbdb" p-id="1616"></path></svg>